HIERARCHY
ROOT Hips
{
	OFFSET 0.000000 0.000000 0.000000 
	CHANNELS 6 Xposition Yposition Zposition Zrotation Yrotation Xrotation
	JOINT LeftUpLeg
	{
		OFFSET 1.363060 -1.794630 0.839290 
		CHANNELS 3 Zrotation Yrotation Xrotation
		JOINT LeftLeg
		{
			OFFSET 2.448110 -6.726130 0.000000 
			CHANNELS 3 Zrotation Yrotation Xrotation
			JOINT LeftFoot
			{
				OFFSET 2.562200 -7.039590 0.000000 
				CHANNELS 3 Zrotation Yrotation Xrotation
				JOINT LeftToeBase
				{
					OFFSET 0.157640 -0.433110 2.322550 
					CHANNELS 3 Zrotation Yrotation Xrotation
					End Site
					{
						OFFSET 0.000000 0.000000 0.000000 
					}
				}
			}
		}
	}
	JOINT RightUpLeg
	{
		OFFSET -1.305520 -1.794630 0.839290 
		CHANNELS 3 Zrotation Yrotation Xrotation
		JOINT RightLeg
		{
			OFFSET -2.542530 -6.985550 0.000000 
			CHANNELS 3 Zrotation Yrotation Xrotation
			JOINT RightFoot
			{
				OFFSET -2.568260 -7.056230 0.000000 
				CHANNELS 3 Zrotation Yrotation Xrotation
				JOINT RightToeBase
				{
					OFFSET -0.164730 -0.452590 2.363150 
					CHANNELS 3 Zrotation Yrotation Xrotation
					End Site
					{
						OFFSET 0.000000 0.000000 0.000000 
					}
				}
			}
		}
	}
	JOINT Spine
	{
		OFFSET 0.028270 2.035590 -0.193380 
		CHANNELS 3 Zrotation Yrotation Xrotation
		JOINT Spine1
		{
			OFFSET 0.056720 2.048850 -0.042750 
			CHANNELS 3 Zrotation Yrotation Xrotation
			JOINT Neck1
			{
				OFFSET -0.054170 1.746240 0.172020 
				CHANNELS 3 Zrotation Yrotation Xrotation
				JOINT Head
				{
					OFFSET 0.104070 1.761360 -0.123970 
					CHANNELS 3 Zrotation Yrotation Xrotation
					End Site
					{
						OFFSET 0.000000 0.000000 0.000000 
					}
				}
			}
			JOINT LeftArm
			{
				OFFSET 3.362410 1.200890 -0.311210 
				CHANNELS 3 Zrotation Yrotation Xrotation
				JOINT LeftForeArm
				{
					OFFSET 4.983000 -0.000000 -0.000000 
					CHANNELS 3 Zrotation Yrotation Xrotation
					JOINT LeftHand
					{
						OFFSET 3.483560 -0.000000 -0.000000 
						CHANNELS 3 Zrotation Yrotation Xrotation
						JOINT LeftHandIndex1
						{
							OFFSET 0.715260 -0.000000 -0.000000 
							CHANNELS 3 Zrotation Yrotation Xrotation
							End Site
							{
								OFFSET 0.000000 0.000000 0.000000 
							}
						}
					}
				}
			}
			JOINT RightArm
			{
				OFFSET -3.136600 1.374050 -0.404650 
				CHANNELS 3 Zrotation Yrotation Xrotation
				JOINT RightForeArm
				{
					OFFSET -5.241900 -0.000000 -0.000000 
					CHANNELS 3 Zrotation Yrotation Xrotation
					JOINT RightHand
					{
						OFFSET -3.444170 -0.000000 -0.000000 
						CHANNELS 3 Zrotation Yrotation Xrotation
						JOINT RightHandIndex1
						{
							OFFSET -0.622530 -0.000000 -0.000000 
							CHANNELS 3 Zrotation Yrotation Xrotation
							End Site
							{
								OFFSET 0.000000 0.000000 0.000000 
							}
						}
					}
				}
			}
		}
	}
}
MOTION
Frames: 6
Frame Time: 0.041667
9.584890 16.930907 -9.790322 -115.114952 -87.711415 124.571226 -0.687965 1.715039 -33.019300 4.499644 14.036019 41.535045 1.518900 -3.951810 4.278267 0.579700 -4.875500 -13.553700 7.195661 7.295125 -30.484016 -5.494295 -15.348497 45.557977 -2.473655 3.750004 -4.375732 -0.329200 3.687600 -10.199500 1.807082 2.727403 -1.089340 2.519866 0.835398 -2.482821 -1.509921 22.540868 1.746168 1.633600 10.636100 4.814200 -90.239386 -60.132132 90.359259 77.397220 -56.026297 -41.252179 1.197271 1.298308 -1.771299 -7.125000 0.000000 0.000000 63.973970 28.178488 40.857345 -137.728335 43.368935 -101.949652 -0.829952 -0.230177 -25.791752 7.125000 0.000000 0.000000 
9.612219 16.923639 -9.794314 -118.185240 -87.740957 127.717404 -0.829883 1.824101 -33.025294 4.412634 13.942384 41.201424 1.474367 -3.715808 4.045538 0.550000 -4.751000 -13.199700 7.094061 7.226978 -30.798247 -5.544164 -15.392679 45.719760 -2.552296 4.000079 -4.330061 -0.326700 3.673800 -10.160600 1.824652 2.666830 -1.107745 2.628744 0.811801 -2.392868 -1.564410 22.731869 1.770434 1.643900 10.722800 4.825600 -92.515100 -62.629062 92.780860 77.232146 -56.300776 -41.145466 1.206549 1.275063 -1.506098 -7.125000 0.000000 0.000000 63.468504 28.819116 39.258541 -138.432554 42.825148 -102.669091 -0.861467 -0.186651 -24.990476 7.125000 0.000000 0.000000 
9.638218 16.916679 -9.798204 -121.171430 -87.756494 130.769423 -0.975971 1.977961 -33.024940 4.323111 13.844166 40.855520 1.434286 -3.499054 3.820719 0.523800 -4.638000 -12.879000 7.008236 7.160914 -31.091522 -5.591142 -15.434416 45.872418 -2.618097 4.212214 -4.291690 -0.327400 3.677500 -10.171200 1.840102 2.602861 -1.126930 2.729595 0.786741 -2.331456 -1.620449 22.907318 1.770936 1.646800 10.804200 4.825500 -95.195210 -64.863506 95.407048 76.926014 -56.704340 -40.954095 1.218754 1.251398 -1.144569 -7.125000 0.000000 0.000000 62.994795 29.413281 37.702620 -139.078900 42.305647 -103.326657 -0.891161 -0.144382 -24.241015 7.125000 0.000000 0.000000 
9.662579 16.910538 -9.801888 -124.425865 -87.755614 134.087265 -1.131406 2.167462 -33.015075 4.231823 13.742264 40.501171 1.396607 -3.293461 3.594531 0.503600 -4.549100 -12.627000 6.923224 7.106447 -31.365635 -5.633728 -15.472649 46.010521 -2.675477 4.399683 -4.254601 -0.330300 3.693800 -10.216700 1.848992 2.533877 -1.147754 2.805869 0.760305 -2.312979 -1.695241 23.077048 1.766401 1.633600 10.881800 4.831200 -98.201018 -66.745529 98.179160 76.474271 -57.199538 -40.672409 1.232645 1.229881 -0.695731 -7.125000 0.000000 0.000000 62.572605 29.948187 36.204650 -139.678772 41.808013 -103.931681 -0.918988 -0.104282 -23.617496 7.125000 0.000000 0.000000 
9.685201 16.905010 -9.804755 -127.929762 -87.727593 137.651759 -1.280797 2.377848 -32.994137 4.142003 13.640002 40.149791 1.364279 -3.112171 3.379821 0.488400 -4.481200 -12.434400 6.842613 7.070950 -31.617950 -5.670835 -15.506829 46.130961 -2.726812 4.569236 -4.216202 -0.333700 3.712300 -10.268600 1.855070 2.457510 -1.169329 2.870517 0.730344 -2.342115 -1.787147 23.255007 1.774963 1.609600 10.959800 4.855500 -101.409984 -68.240609 101.007642 75.863760 -57.730064 -40.287594 1.252204 1.209781 -0.139926 -7.125000 0.000000 0.000000 62.198065 30.424703 34.781731 -140.240321 41.329732 -104.490013 -0.944170 -0.066706 -23.127967 7.125000 0.000000 0.000000 
9.705774 16.900609 -9.806392 -131.700415 -87.671449 141.481591 -1.418723 2.580241 -32.965014 4.057278 13.542758 39.818229 1.338671 -2.962768 3.194936 0.477700 -4.432500 -12.296600 6.756887 7.055943 -31.848073 -5.702230 -15.536213 46.231807 -2.773601 4.725323 -4.175975 -0.337900 3.735600 -10.334000 1.850764 2.372048 -1.191063 2.895023 0.698116 -2.411854 -1.882986 23.429943 1.790457 1.581800 11.034900 4.887700 -104.680503 -69.351403 103.814947 75.116618 -58.240411 -39.812981 1.276159 1.190338 0.503691 -7.125000 0.000000 0.000000 61.889148 30.838071 33.443776 -140.771473 40.867364 -105.009043 -0.966766 -0.032946 -22.801912 7.125000 0.000000 0.000000 
